# xmcd CD database file
#
# Track frame offsets:
#	150
#	15072
#	43922
#	71030
#	96065
#
# Disc length: 1535 seconds
#
# Revision: 0
# Processed by: cddbd v1.5.1PL0 Copyright (c) Steve Scherf et al.
# Submitted via: CDex 1.51
#
DISCID=3505fd05
DTITLE=Stereo Fabrication of Youth - Lifedoor
DYEAR=2005
DGENRE=Vocal
TTITLE0=黄昏(LOVE ME DO)
TTITLE1=最後の晩餐（SHE LOVES YOU）
TTITLE2=それから僕が考えたこと(FROM ME TO YOU)
TTITLE3=一期一会(IN MY LIFE)
TTITLE4=シリウス(COME TOGETHER)
EXTD=YEAR: 2005
EXTT0=
EXTT1=
EXTT2=
EXTT3=
EXTT4=
PLAYORDER=
